<svg id="etani09fdwf1" xmlns="http://www.w3.org/2000/svg" xmlns:xlink="http://www.w3.org/1999/xlink" viewBox="0 0 1000 1000" shape-rendering="geometricPrecision" text-rendering="geometricPrecision"><style><![CDATA[#etani09fdwf5_ts {animation: etani09fdwf5_ts__ts 3000ms linear 1 normal forwards}@keyframes etani09fdwf5_ts__ts { 0% {transform: translate(484.656406px,617.601651px) scale(1,1)} 10% {transform: translate(484.656406px,617.601651px) scale(1,1)} 12.333333% {transform: translate(484.656406px,617.601651px) scale(8,8)} 15% {transform: translate(484.656406px,617.601651px) scale(1,1)} 100% {transform: translate(484.656406px,617.601651px) scale(1,1)} }#etani09fdwf5 {animation: etani09fdwf5_c_o 3000ms linear 1 normal forwards}@keyframes etani09fdwf5_c_o { 0% {opacity: 0} 8.666667% {opacity: 0} 10% {opacity: 1} 100% {opacity: 1} }#etani09fdwf7_ts {animation: etani09fdwf7_ts__ts 3000ms linear 1 normal forwards}@keyframes etani09fdwf7_ts__ts { 0% {transform: translate(484.656406px,617.601651px) scale(1,1)} 10% {transform: translate(484.656406px,617.601651px) scale(1,1)} 12.333333% {transform: translate(484.656406px,617.601651px) scale(8,8)} 15% {transform: translate(484.656406px,617.601651px) scale(1,1)} 100% {transform: translate(484.656406px,617.601651px) scale(1,1)} }#etani09fdwf7 {animation: etani09fdwf7_c_o 3000ms linear 1 normal forwards}@keyframes etani09fdwf7_c_o { 0% {opacity: 0} 8.666667% {opacity: 0} 10% {opacity: 1} 100% {opacity: 1} }#etani09fdwf9_ts {animation: etani09fdwf9_ts__ts 3000ms linear 1 normal forwards}@keyframes etani09fdwf9_ts__ts { 0% {transform: translate(484.656406px,617.601651px) scale(1,1)} 10% {transform: translate(484.656406px,617.601651px) scale(1,1)} 12.333333% {transform: translate(484.656406px,617.601651px) scale(8,8)} 15% {transform: translate(484.656406px,617.601651px) scale(1,1)} 100% {transform: translate(484.656406px,617.601651px) scale(1,1)} }#etani09fdwf9 {animation: etani09fdwf9_c_o 3000ms linear 1 normal forwards}@keyframes etani09fdwf9_c_o { 0% {opacity: 0} 8.666667% {opacity: 0} 10% {opacity: 1} 100% {opacity: 1} }#etani09fdwf11_ts {animation: etani09fdwf11_ts__ts 3000ms linear 1 normal forwards}@keyframes etani09fdwf11_ts__ts { 0% {transform: translate(449.654356px,610.029053px) scale(1,1)} 10% {transform: translate(449.654356px,610.029053px) scale(1,1)} 12.333333% {transform: translate(449.654356px,610.029053px) scale(8,8)} 15% {transform: translate(449.654356px,610.029053px) scale(1,1)} 100% {transform: translate(449.654356px,610.029053px) scale(1,1)} }#etani09fdwf11 {animation: etani09fdwf11_c_o 3000ms linear 1 normal forwards}@keyframes etani09fdwf11_c_o { 0% {opacity: 0} 8.666667% {opacity: 0} 10% {opacity: 1} 100% {opacity: 1} }#etani09fdwf14_ts {animation: etani09fdwf14_ts__ts 3000ms linear 1 normal forwards}@keyframes etani09fdwf14_ts__ts { 0% {transform: translate(503.541025px,361.869375px) scale(1,1)} 32.666667% {transform: translate(503.541025px,361.869375px) scale(1,1)} 37.666667% {transform: translate(503.541025px,361.869375px) scale(1.300000,1.300000)} 42% {transform: translate(503.541025px,361.869375px) scale(1,1)} 100% {transform: translate(503.541025px,361.869375px) scale(1,1)} }#etani09fdwf14 {animation: etani09fdwf14_c_o 3000ms linear 1 normal forwards}@keyframes etani09fdwf14_c_o { 0% {opacity: 0} 29.333333% {opacity: 0} 32.666667% {opacity: 1} 100% {opacity: 1} }#etani09fdwf17_ts {animation: etani09fdwf17_ts__ts 3000ms linear 1 normal forwards}@keyframes etani09fdwf17_ts__ts { 0% {transform: translate(414.379165px,392.255410px) scale(1,1)} 39.333333% {transform: translate(414.379165px,392.255410px) scale(1,1)} 44.333333% {transform: translate(414.379165px,392.255410px) scale(1.300000,1.300000)} 48.666667% {transform: translate(414.379165px,392.255410px) scale(1,1)} 100% {transform: translate(414.379165px,392.255410px) scale(1,1)} }#etani09fdwf17 {animation: etani09fdwf17_c_o 3000ms linear 1 normal forwards}@keyframes etani09fdwf17_c_o { 0% {opacity: 0} 36% {opacity: 0} 39.333333% {opacity: 1} 100% {opacity: 1} }#etani09fdwf20_ts {animation: etani09fdwf20_ts__ts 3000ms linear 1 normal forwards}@keyframes etani09fdwf20_ts__ts { 0% {transform: translate(335.576888px,436.931720px) scale(1,1)} 46% {transform: translate(335.576888px,436.931720px) scale(1,1)} 51% {transform: translate(335.576888px,436.931720px) scale(1.300000,1.300000)} 55.333333% {transform: translate(335.576888px,436.931720px) scale(1,1)} 100% {transform: translate(335.576888px,436.931720px) scale(1,1)} }#etani09fdwf20 {animation: etani09fdwf20_c_o 3000ms linear 1 normal forwards}@keyframes etani09fdwf20_c_o { 0% {opacity: 0} 42.666667% {opacity: 0} 46% {opacity: 1} 100% {opacity: 1} }#etani09fdwf23_ts {animation: etani09fdwf23_ts__ts 3000ms linear 1 normal forwards}@keyframes etani09fdwf23_ts__ts { 0% {transform: translate(401.915764px,484.739581px) scale(1,1)} 42.666667% {transform: translate(401.915764px,484.739581px) scale(1,1)} 47.666667% {transform: translate(401.915764px,484.739581px) scale(1.300000,1.300000)} 52% {transform: translate(401.915764px,484.739581px) scale(1,1)} 100% {transform: translate(401.915764px,484.739581px) scale(1,1)} }#etani09fdwf23 {animation: etani09fdwf23_c_o 3000ms linear 1 normal forwards}@keyframes etani09fdwf23_c_o { 0% {opacity: 0} 39.333333% {opacity: 0} 42.666667% {opacity: 1} 100% {opacity: 1} }#etani09fdwf26_ts {animation: etani09fdwf26_ts__ts 3000ms linear 1 normal forwards}@keyframes etani09fdwf26_ts__ts { 0% {transform: translate(594.103203px,484.738786px) scale(1,1)} 42.666667% {transform: translate(594.103203px,484.738786px) scale(1,1)} 47.666667% {transform: translate(594.103203px,484.738786px) scale(1.300000,1.300000)} 52% {transform: translate(594.103203px,484.738786px) scale(1,1)} 100% {transform: translate(594.103203px,484.738786px) scale(1,1)} }#etani09fdwf26 {animation: etani09fdwf26_c_o 3000ms linear 1 normal forwards}@keyframes etani09fdwf26_c_o { 0% {opacity: 0} 39.333333% {opacity: 0} 42.666667% {opacity: 1} 100% {opacity: 1} }#etani09fdwf29_ts {animation: etani09fdwf29_ts__ts 3000ms linear 1 normal forwards}@keyframes etani09fdwf29_ts__ts { 0% {transform: translate(466.231829px,448.887051px) scale(1,1)} 36% {transform: translate(466.231829px,448.887051px) scale(1,1)} 41% {transform: translate(466.231829px,448.887051px) scale(1.300000,1.300000)} 45.333333% {transform: translate(466.231829px,448.887051px) scale(1,1)} 100% {transform: translate(466.231829px,448.887051px) scale(1,1)} }#etani09fdwf29 {animation: etani09fdwf29_c_o 3000ms linear 1 normal forwards}@keyframes etani09fdwf29_c_o { 0% {opacity: 0} 32.666667% {opacity: 0} 36% {opacity: 1} 100% {opacity: 1} }#etani09fdwf32_ts {animation: etani09fdwf32_ts__ts 3000ms linear 1 normal forwards}@keyframes etani09fdwf32_ts__ts { 0% {transform: translate(530.305570px,448.886068px) scale(1,1)} 36% {transform: translate(530.305570px,448.886068px) scale(1,1)} 41% {transform: translate(530.305570px,448.886068px) scale(1.300000,1.300000)} 45.333333% {transform: translate(530.305570px,448.886068px) scale(1,1)} 100% {transform: translate(530.305570px,448.886068px) scale(1,1)} }#etani09fdwf32 {animation: etani09fdwf32_c_o 3000ms linear 1 normal forwards}@keyframes etani09fdwf32_c_o { 0% {opacity: 0} 32.666667% {opacity: 0} 36% {opacity: 1} 100% {opacity: 1} }#etani09fdwf35_ts {animation: etani09fdwf35_ts__ts 3000ms linear 1 normal forwards}@keyframes etani09fdwf35_ts__ts { 0% {transform: translate(588.556948px,392.255188px) scale(1,1)} 39.333333% {transform: translate(588.556948px,392.255188px) scale(1,1)} 44.333333% {transform: translate(588.556948px,392.255188px) scale(1.300000,1.300000)} 48.666667% {transform: translate(588.556948px,392.255188px) scale(1,1)} 100% {transform: translate(588.556948px,392.255188px) scale(1,1)} }#etani09fdwf35 {animation: etani09fdwf35_c_o 3000ms linear 1 normal forwards}@keyframes etani09fdwf35_c_o { 0% {opacity: 0} 36% {opacity: 0} 39.333333% {opacity: 1} 100% {opacity: 1} }#etani09fdwf38_ts {animation: etani09fdwf38_ts__ts 3000ms linear 1 normal forwards}@keyframes etani09fdwf38_ts__ts { 0% {transform: translate(667.660379px,436.931094px) scale(1,1)} 46% {transform: translate(667.660379px,436.931094px) scale(1,1)} 51% {transform: translate(667.660379px,436.931094px) scale(1.300000,1.300000)} 55.333333% {transform: translate(667.660379px,436.931094px) scale(1,1)} 100% {transform: translate(667.660379px,436.931094px) scale(1,1)} }#etani09fdwf38 {animation: etani09fdwf38_c_o 3000ms linear 1 normal forwards}@keyframes etani09fdwf38_c_o { 0% {opacity: 0} 42.666667% {opacity: 0} 46% {opacity: 1} 100% {opacity: 1} }#etani09fdwf40_ts {animation: etani09fdwf40_ts__ts 3000ms linear 1 normal forwards}@keyframes etani09fdwf40_ts__ts { 0% {transform: translate(279.049347px,491.588697px) scale(1,1)} 49.333333% {transform: translate(279.049347px,491.588697px) scale(1,1)} 54.333333% {transform: translate(279.049347px,491.588697px) scale(1.300000,1.300000)} 58.666667% {transform: translate(279.049347px,491.588697px) scale(1,1)} 100% {transform: translate(279.049347px,491.588697px) scale(1,1)} }#etani09fdwf40 {animation: etani09fdwf40_c_o 3000ms linear 1 normal forwards}@keyframes etani09fdwf40_c_o { 0% {opacity: 0} 46% {opacity: 0} 49.333333% {opacity: 1} 100% {opacity: 1} }#etani09fdwf42_ts {animation: etani09fdwf42_ts__ts 3000ms linear 1 normal forwards}@keyframes etani09fdwf42_ts__ts { 0% {transform: translate(724.401751px,491.580656px) scale(1,1)} 49.333333% {transform: translate(724.401751px,491.580656px) scale(1,1)} 54.333333% {transform: translate(724.401751px,491.580656px) scale(1.300000,1.300000)} 58.666667% {transform: translate(724.401751px,491.580656px) scale(1,1)} 100% {transform: translate(724.401751px,491.580656px) scale(1,1)} }#etani09fdwf42 {animation: etani09fdwf42_c_o 3000ms linear 1 normal forwards}@keyframes etani09fdwf42_c_o { 0% {opacity: 0} 46% {opacity: 0} 49.333333% {opacity: 1} 100% {opacity: 1} }]]></style><g id="etani09fdwf2"><g id="etani09fdwf3"><g id="etani09fdwf4"><g id="etani09fdwf5_ts" transform="translate(484.656406,617.601651) scale(1,1)"><path id="etani09fdwf5" d="M563.136000,452.468000C555.899000,426.588000,547.957000,401.414000,540.667000,375.592000C520.563000,375.592000,500.457000,375.592000,480.348000,375.592000C479.853000,375.754000,479.542000,376.099000,479.561000,376.777000C476.567000,394.695000,473.582000,412.625000,470.591000,430.554000C470.262000,428.591000,469.868000,426.694000,469.398000,424.904000C460.365000,390.554000,430.377000,370.326000,387.398000,372.867000C373.531000,373.687000,360.949000,376.449000,349.948000,380.750000C318.670000,392.977000,295.262000,416.236000,288.054000,452.499000C287.340000,456.092000,286.843000,459.597000,286.542000,463.006000C281.346000,433.905000,276.215000,404.738000,271.092000,375.562000C251.380000,375.562000,231.668000,375.562000,211.957000,375.562000C203.625000,391.735000,195.284000,407.901000,186.953000,424.076000C186.979000,420.098000,186.628000,416.092000,185.839000,412.145000C183.099000,398.457000,174.646000,387.202000,162.579000,381.399000C138.866000,369.987000,98.038000,378.656000,65.206000,375.878000C55.404000,430.595000,46.619000,486.334000,37.216000,541.452000C56.534000,541.452000,75.851000,541.452000,95.169000,541.452000C97.749000,523.797000,100.836000,506.645000,103.840000,489.416000C127.633000,490.581000,146.338000,485.897000,160.118000,476.311000C149.087000,497.863000,138.103000,519.457000,127.201000,541.135000C147.175000,541.135000,167.149000,541.135000,187.122000,541.135000C191.430000,532.959000,194.588000,523.631000,199.344000,515.905000C211.957000,516.170000,225.623000,515.381000,237.583000,516.301000C238.930000,524.281000,239.570000,532.971000,240.735000,541.135000C260.578000,540.872000,281.471000,541.659000,300.656000,540.741000C298.499000,529.109000,296.365000,517.451000,294.244000,505.781000C297.127000,511.489000,300.651000,516.608000,304.612000,521.093000C318.773000,537.132000,341.344000,545.345000,370.445000,543.959000C411.470000,542.005000,443.905000,522.906000,460.403000,491.464000C457.612000,508.052000,454.806000,524.629000,451.962000,541.168000C471.805000,541.168000,491.652000,541.168000,511.495000,541.168000C516.097000,515.547000,519.538000,488.768000,524.896000,463.899000C532.001000,490.042000,540.108000,515.179000,547.365000,541.168000C567.736000,541.168000,588.106000,541.168000,608.473000,541.168000C617.306000,485.615000,626.751000,430.667000,636.067000,375.593000C616.223000,375.593000,596.381000,375.593000,576.542000,375.593000C571.945000,401.092000,568.562000,427.798000,563.136000,452.468000ZM107.019000,446.081000C109.334000,435.879000,107.019000,446.081000,112.948000,414.462000C142.807000,409.455000,135.269000,452.261000,107.019000,446.081000ZM206.548000,481.796000C226.640000,435.631000,220.459000,451.537000,226.640000,435.631000C232.072000,481.796000,230.387000,466.284000,232.072000,481.796000C223.565000,481.796000,215.053000,481.796000,206.548000,481.796000ZM389.388000,477.448000C385.286000,481.068000,378.644000,483.570000,372.930000,483.349000C367.224000,483.126000,362.444000,480.187000,359.657000,475.447000C351.129000,460.944000,360.536000,438.175000,371.663000,432.574000C373.607000,431.593000,376.442000,430.899000,379.381000,430.572000C387.686000,429.639000,393.651000,432.620000,396.818000,438.002000C404.176000,450.518000,397.594000,470.203000,389.388000,477.448000Z" transform="translate(-379.331859,-458.165290)" opacity="0" fill="#ffffff" stroke="none" stroke-width="1"/></g></g></g><g id="etani09fdwf6"><g id="etani09fdwf7_ts" transform="translate(484.656406,617.601651) scale(1,1)"><path id="etani09fdwf7" d="M667.695000,376.701000C663.172000,410.702000,658.579000,444.639000,654.404000,478.991000C670.034000,478.991000,685.668000,478.991000,701.302000,478.991000C708,444.335000,715.455000,410.428000,721.980000,375.594000C704.005000,375.594000,686.038000,375.594000,668.068000,375.594000C667.637000,375.657000,667.666000,376.177000,667.695000,376.701000Z" transform="translate(-379.331859,-458.165290)" opacity="0" fill="#ffffff" stroke="none" stroke-width="1"/></g></g><g id="etani09fdwf8"><g id="etani09fdwf9_ts" transform="translate(484.656406,617.601651) scale(1,1)"><path id="etani09fdwf9" d="M676.932000,489.125000C668.928000,489.228000,663.461000,490.979000,658.467000,494.298000C653.309000,497.723000,650.654000,499.598000,647.386000,506.115000C640.601000,519.656000,647.275000,534.849000,658.467000,538.979000C674.645000,544.955000,692.858000,535.093000,698.715000,522.363000C701.099000,517.183000,702.299000,509,699.454000,502.051000C696.716000,495.355000,688.183000,488.984000,676.932000,489.125000Z" transform="translate(-379.331859,-458.165290)" opacity="0" fill="#ffffff" stroke="none" stroke-width="1"/></g></g><g id="etani09fdwf10"><g id="etani09fdwf11_ts" transform="translate(449.654356,610.029053) scale(1,1)"><path id="etani09fdwf11" d="M710.982767,268.125000C650.495523,268.125000,602.295329,239.803000,678.666637,151.596000C639.598480,173.672000,610.799364,182.822000,590.083280,182.822000C540.813082,182.822000,537.266067,131.039000,550.187119,78.181000C523.327011,118.232000,496.998905,133.538000,473.748811,133.538000C435.650658,133.538000,405.809538,92.430000,395.462496,51.705000C386.870461,95.070000,360.111354,141.492000,322.670203,141.492000C300.070112,141.492000,273.578005,124.569000,244.845889,79.850000C249.082906,132.060000,227.875821,182.157000,184.783647,182.157000C165.639570,182.157000,142.166476,172.258000,114.700365,148.260000C141.171472,207.817000,154.682526,274.812000,90.914269,274.812000C74.289202,274.812000,52.406114,270.254000,24.139000,259.826000C70.146185,302.892000,77.845216,331.454000,65.122165,350.142000L100.485308,350.142000C104.785325,335.343000,103.261319,320.679000,98.514300,306.954000C131.062431,304.808000,148.164500,288.978000,156.891535,275.548000C167.393577,259.387000,171.147592,238.381000,168.087580,213.011000C173.717603,214.032000,179.287625,214.546000,184.782647,214.546000C208.439743,214.546000,229.595828,205.165000,245.960894,187.420000C254.553928,178.099000,261.563957,166.537000,266.793978,153.428000C284.865050,167.031000,303.533126,173.880000,322.669203,173.880000C350.227314,173.880000,376.280419,158.995000,396.030498,131.970000C396.992502,130.654000,397.939506,129.311000,398.871510,127.943000C418.019587,150.290000,443.477689,165.926000,473.746811,165.926000C487.871868,165.926000,501.607924,162.607000,514.897977,156.002000C517.717989,167.614000,522.469008,178.496000,529.828037,187.870000C539.619077,200.342000,558.020151,215.209000,590.082280,215.209000C595.780303,215.209000,601.727327,214.735000,607.939352,213.778000C605.639343,228.348000,607.298349,241.879000,612.918372,254.179000C623.962417,278.340000,648.847517,293.723000,684.184659,298.728000C675.986626,317.250000,677.213631,333.227000,680.282644,344.282000C680.830646,346.266000,681.480648,348.220000,682.214651,350.140000L719.544802,350.140000C701.086727,328.720000,707.025751,297.671000,768.769000,260.564000C750.663927,265.269000,730.205845,268.125000,710.982767,268.125000Z" transform="translate(-344.328809,-450.592692)" opacity="0" fill="#ffffff" stroke="none" stroke-width="1"/></g></g><g id="etani09fdwf12"><g id="etani09fdwf13"><g id="etani09fdwf14_ts" transform="translate(503.541025,361.869375) scale(1,1)"><path id="etani09fdwf14" d="M398.147000,168.501000C382.841000,168.525000,370.461000,187.855000,370.498000,211.674000C370.525000,227.974000,382.946000,236.388000,398.254000,236.365000C413.563000,236.343000,425.960000,227.889000,425.935000,211.589000C425.897000,187.770000,413.461000,168.479000,398.147000,168.501000ZM406.729000,225.910000C404.162000,227.056000,401.258000,220.064000,398.074000,220.009000C395.003000,219.954000,392.032000,226.883000,389.559000,225.726000C384.414000,223.316000,380.995000,218.869000,381.087000,213.846000C381.218000,206.404000,388.999000,200.510000,398.462000,200.680000C407.927000,200.854000,415.489000,207.020000,415.354000,214.463000C415.262000,219.399000,411.812000,223.656000,406.729000,225.910000Z" transform="translate(-398.216478,-202.433014)" opacity="0" fill="#ffffff" stroke="none" stroke-width="1"/></g></g></g><g id="etani09fdwf15"><g id="etani09fdwf16"><g id="etani09fdwf17_ts" transform="translate(414.379165,392.255410) scale(1,1)"><path id="etani09fdwf17" d="M320.915000,262.899000C334.847000,256.555000,342.647000,243.736000,335.894000,228.903000C326.023000,207.225000,306.727000,194.795000,292.794000,201.136000C278.861000,207.482000,275.569000,230.196000,285.440000,251.875000C292.193000,266.710000,306.983000,269.244000,320.915000,262.899000ZM306.367000,230.314000C315.058000,226.561000,324.492000,229.055000,327.443000,235.890000C329.399000,240.423000,328.013000,245.724000,324.317000,249.876000C322.448000,251.982000,316.920000,246.811000,313.997000,248.075000C311.177000,249.294000,311.335000,256.831000,308.602000,256.801000C302.920000,256.731000,297.970000,254.094000,295.979000,249.479000C293.026000,242.648000,297.676000,234.067000,306.367000,230.314000Z" transform="translate(-309.054618,-232.819049)" opacity="0" fill="#ffffff" stroke="none" stroke-width="1"/></g></g></g><g id="etani09fdwf18"><g id="etani09fdwf19"><g id="etani09fdwf20_ts" transform="translate(335.576888,436.931720) scale(1,1)"><path id="etani09fdwf20" d="M250.885000,301.020000C262.284000,290.800000,265.896000,276.237000,255.016000,264.100000C239.120000,246.363000,216.991000,240.267000,205.589000,250.484000C194.190000,260.703000,197.837000,283.364000,213.736000,301.100000C224.616000,313.236000,239.485000,311.236000,250.885000,301.020000ZM227.261000,274.270000C234.435000,268.092000,244.183000,267.652000,249.040000,273.291000C252.264000,277.031000,252.525000,282.504000,250.237000,287.574000C249.084000,290.141000,242.261000,286.861000,239.852000,288.939000C237.525000,290.947000,239.930000,298.090000,237.311000,298.879000C231.868000,300.510000,226.356000,299.473000,223.080000,295.664000C218.216000,290.028000,220.090000,280.450000,227.261000,274.270000Z" transform="translate(-230.252341,-277.495359)" opacity="0" fill="#ffffff" stroke="none" stroke-width="1"/></g></g></g><g id="etani09fdwf21"><g id="etani09fdwf22"><g id="etani09fdwf23_ts" transform="translate(401.915764,484.739581) scale(1,1)"><path id="etani09fdwf23" d="M280.518000,341.289000C286.935000,351.863000,298.305000,352.451000,308.238000,346.422000C318.166000,340.399000,322.899000,330.040000,316.482000,319.469000C307.109000,304.014000,291.456000,296.372000,281.522000,302.398000C271.589000,308.422000,271.143000,325.837000,280.518000,341.289000ZM294.358000,323.167000C300.571000,319.566000,307.905000,320.603000,310.737000,325.488000C312.620000,328.727000,312.050000,332.845000,309.635000,336.307000C308.414000,338.061000,303.787000,334.656000,301.697000,335.869000C299.680000,337.044000,300.473000,342.708000,298.410000,342.927000C294.125000,343.383000,290.156000,341.839000,288.246000,338.539000C285.408000,333.656000,288.148000,326.776000,294.358000,323.167000Z" transform="translate(-296.591217,-325.303220)" opacity="0" fill="#ffffff" stroke="none" stroke-width="1"/></g></g></g><g id="etani09fdwf24"><g id="etani09fdwf25"><g id="etani09fdwf26_ts" transform="translate(594.103203,484.738786) scale(1,1)"><path id="etani09fdwf26" d="M503.846000,302.397000C493.914000,296.372000,478.261000,304.013000,468.888000,319.468000C462.471000,330.039000,467.203000,340.398000,477.134000,346.421000C487.066000,352.450000,498.434000,351.862000,504.850000,341.288000C514.228000,325.837000,513.781000,308.422000,503.846000,302.397000ZM497.123000,338.540000C495.215000,341.840000,491.245000,343.384000,486.959000,342.928000C484.896000,342.709000,485.688000,337.045000,483.673000,335.870000C481.580000,334.656000,476.955000,338.061000,475.732000,336.308000C473.320000,332.846000,472.748000,328.728000,474.630000,325.489000C477.464000,320.603000,484.794000,319.567000,491.012000,323.168000C497.225000,326.776000,499.962000,333.656000,497.123000,338.540000Z" transform="translate(-488.778656,-325.302425)" opacity="0" fill="#ffffff" stroke="none" stroke-width="1"/></g></g></g><g id="etani09fdwf27"><g id="etani09fdwf28"><g id="etani09fdwf29_ts" transform="translate(466.231829,448.887051) scale(1,1)"><path id="etani09fdwf29" d="M352.318000,264.428000C341.164000,267.675000,336.215000,284.374000,341.269000,301.731000C344.725000,313.609000,355.556000,317.123000,366.707000,313.876000C377.861000,310.631000,385.116000,301.853000,381.659000,289.976000C376.609000,272.621000,363.473000,261.181000,352.318000,264.428000ZM374.554000,294.301000C375.530000,297.920000,373.910000,301.750000,370.683000,304.466000C369.050000,305.845000,365.460000,301.360000,363.126000,301.990000C360.876000,302.596000,360.177000,308.276000,358.126000,307.956000C353.867000,307.281000,350.436000,304.762000,349.443000,301.080000C347.969000,295.626000,352.397000,289.690000,359.332000,287.818000C366.269000,285.947000,373.081000,288.848000,374.554000,294.301000Z" transform="translate(-360.907283,-289.450690)" opacity="0" fill="#ffffff" stroke="none" stroke-width="1"/></g></g></g><g id="etani09fdwf30"><g id="etani09fdwf31"><g id="etani09fdwf32_ts" transform="translate(530.305570,448.886068) scale(1,1)"><path id="etani09fdwf32" d="M404.229000,289.975000C400.773000,301.851000,408.030000,310.630000,419.179000,313.875000C430.333000,317.122000,441.167000,313.608000,444.622000,301.730000C449.670000,284.374000,444.725000,267.674000,433.570000,264.427000C422.415000,261.180000,409.282000,272.621000,404.229000,289.975000ZM426.557000,287.818000C433.494000,289.691000,437.920000,295.627000,436.445000,301.080000C435.455000,304.762000,432.023000,307.281000,427.761000,307.956000C425.713000,308.276000,425.014000,302.597000,422.761000,301.990000C420.432000,301.359000,416.840000,305.844000,415.209000,304.466000C411.977000,301.750000,410.360000,297.920000,411.336000,294.301000C412.807000,288.848000,419.621000,285.947000,426.557000,287.818000Z" transform="translate(-424.981023,-289.449707)" opacity="0" fill="#ffffff" stroke="none" stroke-width="1"/></g></g></g><g id="etani09fdwf33"><g id="etani09fdwf34"><g id="etani09fdwf35_ts" transform="translate(588.556948,392.255188) scale(1,1)"><path id="etani09fdwf35" d="M499.555000,201.136000C485.571000,194.795000,466.204000,207.225000,456.292000,228.903000C449.511000,243.736000,457.340000,256.555000,471.329000,262.899000C485.312000,269.243000,500.156000,266.710000,506.937000,251.875000C516.844000,230.196000,513.544000,207.482000,499.555000,201.136000ZM496.355000,249.479000C494.360000,254.094000,489.390000,256.731000,483.686000,256.801000C480.944000,256.831000,481.104000,249.294000,478.269000,248.075000C475.338000,246.811000,469.790000,251.982000,467.912000,249.876000C464.203000,245.724000,462.810000,240.422000,464.776000,235.890000C467.737000,229.056000,477.207000,226.561000,485.929000,230.314000C494.657000,234.067000,499.321000,242.648000,496.355000,249.479000Z" transform="translate(-483.232401,-232.818827)" opacity="0" fill="#ffffff" stroke="none" stroke-width="1"/></g></g></g><g id="etani09fdwf36"><g id="etani09fdwf37"><g id="etani09fdwf38_ts" transform="translate(667.660379,436.931094) scale(1,1)"><path id="etani09fdwf38" d="M587.092000,250.483000C575.649000,240.266000,553.437000,246.362000,537.478000,264.099000C526.557000,276.236000,530.183000,290.799000,541.623000,301.019000C553.069000,311.236000,567.994000,313.236000,578.914000,301.099000C594.872000,283.363000,598.537000,260.702000,587.092000,250.483000ZM569.537000,295.664000C566.246000,299.473000,560.714000,300.510000,555.248000,298.879000C552.621000,298.090000,555.034000,290.947000,552.699000,288.939000C550.282000,286.861000,543.433000,290.142000,542.272000,287.574000C539.977000,282.504000,540.239000,277.032000,543.476000,273.291000C548.350000,267.651000,558.135000,268.092000,565.339000,274.270000C572.537000,280.450000,574.415000,290.028000,569.537000,295.664000Z" transform="translate(-562.335832,-277.494733)" opacity="0" fill="#ffffff" stroke="none" stroke-width="1"/></g></g></g><g id="etani09fdwf39"><g id="etani09fdwf40_ts" transform="translate(279.049347,491.588697) scale(1,1)"><path id="etani09fdwf40" d="M142.772000,325.674000C139.008000,332.754000,140.301000,341.617000,145.400000,350.061000L168.652000,350.061000C168.710000,346.959000,169.574000,343.662000,171.304000,340.552000C175.913000,332.283000,184.915000,328.517000,191.416000,332.140000C195.731000,334.543000,197.860000,339.593000,197.457000,345.136000C197.255000,347.948000,197.170000,348.316000,196.800000,350.141000C196.794000,350.164000,205.714000,350.061000,205.714000,350.061000C208.860000,338.827000,205.634000,327.711000,193.866000,321.455000C172.837000,310.269000,149.961000,312.159000,142.772000,325.674000Z" transform="translate(-173.724800,-332.152336)" opacity="0" fill="#ffffff" stroke="none" stroke-width="1"/></g></g><g id="etani09fdwf41"><g id="etani09fdwf42_ts" transform="translate(724.401751,491.580656) scale(1,1)"><path id="etani09fdwf42" d="M601.318000,332.140000C607.846000,328.517000,616.880000,332.284000,621.506000,340.552000C623.242000,343.661000,624.112000,346.959000,624.170000,350.061000L647.508000,350.061000C652.628000,341.618000,653.924000,332.754000,650.148000,325.674000C642.930000,312.159000,619.967000,310.269000,598.858000,321.454000C587.047000,327.711000,583.811000,338.826000,586.966000,350.060000L591.028000,350.060000C591.018000,350.039000,595.765000,350.149000,595.765000,350.125000C595.411000,347.115000,595.454000,347.946000,595.255000,345.135000C594.848000,339.593000,596.983000,334.543000,601.318000,332.140000Z" transform="translate(-619.077204,-332.144295)" opacity="0" fill="#ffffff" stroke="none" stroke-width="1"/></g></g></g></svg>