<?xml version="1.0" encoding="utf-8"?>
<!-- Generator: Adobe Illustrator 14.0.0, SVG Export Plug-In . SVG Version: 6.00 Build 43363)  -->
<!DOCTYPE svg PUBLIC "-//W3C//DTD SVG 1.1//EN" "http://www.w3.org/Graphics/SVG/1.1/DTD/svg11.dtd">
<svg version="1.1" id="Calque_1" xmlns="http://www.w3.org/2000/svg" xmlns:xlink="http://www.w3.org/1999/xlink" x="0px" y="0px"
	 width="800px" height="600px" viewBox="0 0 800 600" enable-background="new 0 0 800 600" xml:space="preserve">
<g>
	<g>
		<g>
			<path fill="#FFFFFF" d="M563.136,452.468c-7.237-25.88-15.179-51.054-22.469-76.876c-20.104,0-40.21,0-60.319,0
				c-0.495,0.162-0.806,0.507-0.787,1.185c-2.994,17.918-5.979,35.848-8.97,53.777c-0.329-1.963-0.723-3.86-1.193-5.65
				c-9.033-34.35-39.021-54.578-82-52.037c-13.867,0.82-26.449,3.582-37.45,7.883c-31.278,12.227-54.686,35.486-61.894,71.749
				c-0.714,3.593-1.211,7.098-1.512,10.507c-5.196-29.101-10.327-58.268-15.45-87.444c-19.712,0-39.424,0-59.135,0
				c-8.332,16.173-16.673,32.339-25.004,48.514c0.026-3.978-0.325-7.984-1.114-11.931c-2.74-13.688-11.193-24.943-23.26-30.746
				c-23.713-11.412-64.541-2.743-97.373-5.521c-9.802,54.717-18.587,110.456-27.99,165.574c19.318,0,38.635,0,57.953,0
				c2.58-17.655,5.667-34.807,8.671-52.036c23.793,1.165,42.498-3.519,56.278-13.105c-11.031,21.552-22.015,43.146-32.917,64.824
				c19.974,0,39.948,0,59.921,0c4.308-8.176,7.466-17.504,12.222-25.23c12.613,0.265,26.279-0.524,38.239,0.396
				c1.347,7.98,1.987,16.67,3.152,24.834c19.843-0.263,40.736,0.524,59.921-0.394c-2.157-11.632-4.291-23.29-6.412-34.96
				c2.883,5.708,6.407,10.827,10.368,15.312c14.161,16.039,36.732,24.252,65.833,22.866c41.025-1.954,73.46-21.053,89.958-52.495
				c-2.791,16.588-5.597,33.165-8.441,49.704c19.843,0,39.69,0,59.533,0c4.602-25.621,8.043-52.4,13.401-77.269
				c7.105,26.143,15.212,51.28,22.469,77.269c20.371,0,40.741,0,61.108,0c8.833-55.553,18.278-110.501,27.594-165.575
				c-19.844,0-39.686,0-59.525,0C571.945,401.092,568.562,427.798,563.136,452.468z M107.019,446.081c2.315-10.202,0,0,5.929-31.619
				C142.807,409.455,135.269,452.261,107.019,446.081z M206.548,481.796c20.092-46.165,13.911-30.259,20.092-46.165
				c5.432,46.165,3.747,30.653,5.432,46.165C223.565,481.796,215.053,481.796,206.548,481.796z M389.388,477.448
				c-4.102,3.62-10.744,6.122-16.458,5.901c-5.706-0.223-10.486-3.162-13.273-7.902c-8.528-14.503,0.879-37.272,12.006-42.873
				c1.944-0.981,4.779-1.675,7.718-2.002c8.305-0.933,14.27,2.048,17.437,7.43C404.176,450.518,397.594,470.203,389.388,477.448z"/>
		</g>
	</g>
	<g>
		<path fill="#FFFFFF" d="M667.695,376.701c-4.523,34.001-9.116,67.938-13.291,102.29c15.63,0,31.264,0,46.898,0
			c6.698-34.656,14.153-68.563,20.678-103.397c-17.975,0-35.942,0-53.912,0C667.637,375.657,667.666,376.177,667.695,376.701z"/>
	</g>
	<g>
		<path fill="#FFFFFF" d="M676.932,489.125c-8.004,0.103-13.471,1.854-18.465,5.173c-5.158,3.425-7.813,5.3-11.081,11.817
			c-6.785,13.541-0.111,28.734,11.081,32.864c16.178,5.976,34.391-3.886,40.248-16.616c2.384-5.18,3.584-13.363,0.739-20.312
			C696.716,495.355,688.183,488.984,676.932,489.125z"/>
	</g>
	<g>
		<path fill="#FFFFFF" d="M710.98,268.125c-60.487,0-108.687-28.322-32.316-116.529c-39.068,22.076-67.867,31.226-88.583,31.226
			c-49.27,0-52.817-51.783-39.896-104.641c-26.86,40.051-53.188,55.357-76.438,55.357c-38.098,0-67.939-41.108-78.286-81.833
			c-8.592,43.365-35.351,89.787-72.792,89.787c-22.6,0-49.092-16.923-77.824-61.642c4.237,52.21-16.97,102.307-60.062,102.307
			c-19.144,0-42.617-9.899-70.083-33.897c26.471,59.557,39.982,126.552-23.786,126.552c-16.625,0-38.508-4.558-66.775-14.986
			c46.007,43.066,53.706,71.628,40.983,90.316h35.363c4.3-14.799,2.776-29.463-1.971-43.188
			c32.548-2.146,49.65-17.976,58.377-31.406c10.502-16.161,14.256-37.167,11.196-62.537c5.63,1.021,11.2,1.535,16.695,1.535
			c23.657,0,44.813-9.381,61.178-27.126c8.593-9.321,15.603-20.883,20.833-33.992c18.071,13.603,36.739,20.452,55.875,20.452
			c27.558,0,53.611-14.885,73.361-41.91c0.962-1.316,1.909-2.659,2.841-4.027c19.148,22.347,44.606,37.983,74.875,37.983
			c14.125,0,27.861-3.319,41.151-9.924c2.82,11.612,7.571,22.494,14.93,31.868c9.791,12.472,28.192,27.339,60.254,27.339
			c5.698,0,11.645-0.474,17.857-1.431c-2.3,14.57-0.641,28.101,4.979,40.401c11.044,24.161,35.929,39.544,71.266,44.549
			c-8.198,18.522-6.971,34.499-3.902,45.554c0.548,1.984,1.198,3.938,1.932,5.858h37.33c-18.458-21.42-12.519-52.469,49.224-89.576
			C750.661,265.269,730.203,268.125,710.98,268.125z"/>
	</g>
	<g>
		<g>
			<path fill="#FFFFFF" d="M398.147,168.501c-15.306,0.024-27.686,19.354-27.649,43.173c0.027,16.3,12.448,24.714,27.756,24.691
				c15.309-0.022,27.706-8.476,27.681-24.776C425.897,187.77,413.461,168.479,398.147,168.501z M406.729,225.91
				c-2.567,1.146-5.471-5.846-8.655-5.901c-3.071-0.055-6.042,6.874-8.515,5.717c-5.145-2.41-8.564-6.857-8.472-11.88
				c0.131-7.442,7.912-13.336,17.375-13.166c9.465,0.174,17.027,6.34,16.892,13.783C415.262,219.399,411.812,223.656,406.729,225.91
				z"/>
		</g>
	</g>
	<g>
		<g>
			<path fill="#FFFFFF" d="M320.915,262.899c13.932-6.344,21.732-19.163,14.979-33.996c-9.871-21.678-29.167-34.108-43.1-27.767
				c-13.933,6.346-17.225,29.06-7.354,50.739C292.193,266.71,306.983,269.244,320.915,262.899z M306.367,230.314
				c8.691-3.753,18.125-1.259,21.076,5.576c1.956,4.533,0.57,9.834-3.126,13.986c-1.869,2.106-7.397-3.065-10.32-1.801
				c-2.82,1.219-2.662,8.756-5.395,8.726c-5.682-0.07-10.632-2.707-12.623-7.322C293.026,242.648,297.676,234.067,306.367,230.314z"
				/>
		</g>
	</g>
	<g>
		<g>
			<path fill="#FFFFFF" d="M250.885,301.02c11.399-10.22,15.011-24.783,4.131-36.92c-15.896-17.737-38.025-23.833-49.427-13.616
				c-11.399,10.219-7.752,32.88,8.147,50.616C224.616,313.236,239.485,311.236,250.885,301.02z M227.261,274.27
				c7.174-6.178,16.922-6.618,21.779-0.979c3.224,3.74,3.485,9.213,1.197,14.283c-1.153,2.567-7.976-0.713-10.385,1.365
				c-2.327,2.008,0.078,9.151-2.541,9.94c-5.443,1.631-10.955,0.594-14.231-3.215C218.216,290.028,220.09,280.45,227.261,274.27z"/>
		</g>
	</g>
	<g>
		<g>
			<path fill="#FFFFFF" d="M280.518,341.289c6.417,10.574,17.787,11.162,27.72,5.133c9.928-6.023,14.661-16.382,8.244-26.953
				c-9.373-15.455-25.026-23.097-34.96-17.071C271.589,308.422,271.143,325.837,280.518,341.289z M294.358,323.167
				c6.213-3.601,13.547-2.564,16.379,2.321c1.883,3.239,1.313,7.357-1.102,10.819c-1.221,1.754-5.848-1.651-7.938-0.438
				c-2.017,1.175-1.224,6.839-3.287,7.058c-4.285,0.456-8.254-1.088-10.164-4.388C285.408,333.656,288.148,326.776,294.358,323.167z
				"/>
		</g>
	</g>
	<g>
		<g>
			<path fill="#FFFFFF" d="M503.846,302.397c-9.932-6.025-25.585,1.616-34.958,17.071c-6.417,10.571-1.685,20.93,8.246,26.953
				c9.932,6.029,21.3,5.441,27.716-5.133C514.228,325.837,513.781,308.422,503.846,302.397z M497.123,338.54
				c-1.908,3.3-5.878,4.844-10.164,4.388c-2.063-0.219-1.271-5.883-3.286-7.058c-2.093-1.214-6.718,2.191-7.941,0.438
				c-2.412-3.462-2.984-7.58-1.102-10.819c2.834-4.886,10.164-5.922,16.382-2.321C497.225,326.776,499.962,333.656,497.123,338.54z"
				/>
		</g>
	</g>
	<g>
		<g>
			<path fill="#FFFFFF" d="M352.318,264.428c-11.154,3.247-16.103,19.946-11.049,37.303c3.456,11.878,14.287,15.392,25.438,12.145
				c11.154-3.245,18.409-12.023,14.952-23.9C376.609,272.621,363.473,261.181,352.318,264.428z M374.554,294.301
				c0.976,3.619-0.644,7.449-3.871,10.165c-1.633,1.379-5.223-3.106-7.557-2.476c-2.25,0.606-2.949,6.286-5,5.966
				c-4.259-0.675-7.69-3.194-8.683-6.876c-1.474-5.454,2.954-11.39,9.889-13.262C366.269,285.947,373.081,288.848,374.554,294.301z"
				/>
		</g>
	</g>
	<g>
		<g>
			<path fill="#FFFFFF" d="M404.229,289.975c-3.456,11.876,3.801,20.655,14.95,23.9c11.154,3.247,21.988-0.267,25.443-12.145
				c5.048-17.356,0.103-34.056-11.052-37.303S409.282,272.621,404.229,289.975z M426.557,287.818
				c6.937,1.873,11.363,7.809,9.888,13.262c-0.99,3.682-4.422,6.201-8.684,6.876c-2.048,0.32-2.747-5.359-5-5.966
				c-2.329-0.631-5.921,3.854-7.552,2.476c-3.232-2.716-4.849-6.546-3.873-10.165C412.807,288.848,419.621,285.947,426.557,287.818z
				"/>
		</g>
	</g>
	<g>
		<g>
			<path fill="#FFFFFF" d="M499.555,201.136c-13.984-6.341-33.351,6.089-43.263,27.767c-6.781,14.833,1.048,27.652,15.037,33.996
				c13.983,6.344,28.827,3.811,35.608-11.024C516.844,230.196,513.544,207.482,499.555,201.136z M496.355,249.479
				c-1.995,4.615-6.965,7.252-12.669,7.322c-2.742,0.03-2.582-7.507-5.417-8.726c-2.931-1.264-8.479,3.907-10.357,1.801
				c-3.709-4.152-5.102-9.454-3.136-13.986c2.961-6.834,12.431-9.329,21.153-5.576C494.657,234.067,499.321,242.648,496.355,249.479
				z"/>
		</g>
	</g>
	<g>
		<g>
			<path fill="#FFFFFF" d="M587.092,250.483c-11.443-10.217-33.655-4.121-49.614,13.616c-10.921,12.137-7.295,26.7,4.145,36.92
				c11.446,10.217,26.371,12.217,37.291,0.08C594.872,283.363,598.537,260.702,587.092,250.483z M569.537,295.664
				c-3.291,3.809-8.823,4.846-14.289,3.215c-2.627-0.789-0.214-7.932-2.549-9.94c-2.417-2.078-9.266,1.203-10.427-1.365
				c-2.295-5.07-2.033-10.542,1.204-14.283c4.874-5.64,14.659-5.199,21.863,0.979C572.537,280.45,574.415,290.028,569.537,295.664z"
				/>
		</g>
	</g>
	<g>
		<path fill="#FFFFFF" d="M142.772,325.674c-3.764,7.08-2.471,15.943,2.628,24.387h23.252c0.058-3.102,0.922-6.399,2.652-9.509
			c4.609-8.269,13.611-12.035,20.112-8.412c4.315,2.403,6.444,7.453,6.041,12.996c-0.202,2.812-0.287,3.18-0.657,5.005
			c-0.006,0.023,8.914-0.08,8.914-0.08c3.146-11.234-0.08-22.35-11.848-28.606C172.837,310.269,149.961,312.159,142.772,325.674z"/>
	</g>
	<g>
		<path fill="#FFFFFF" d="M601.318,332.14c6.528-3.623,15.562,0.144,20.188,8.412c1.736,3.109,2.606,6.407,2.664,9.509h23.338
			c5.12-8.443,6.416-17.307,2.64-24.387c-7.218-13.515-30.181-15.405-51.29-4.22c-11.811,6.257-15.047,17.372-11.892,28.606h4.062
			c-0.01-0.021,4.737,0.089,4.737,0.065c-0.354-3.01-0.311-2.179-0.51-4.99C594.848,339.593,596.983,334.543,601.318,332.14z"/>
	</g>
</g>
</svg>
