<svg id="ewsvz01n53gh1" xmlns="http://www.w3.org/2000/svg" xmlns:xlink="http://www.w3.org/1999/xlink" viewBox="0 0 800 600" shape-rendering="geometricPrecision" text-rendering="geometricPrecision" width="800" height="600"><path id="ewsvz01n53gh2" d="M405.605000,25.474000C278.857000,25.669000,176.370000,185.685000,176.670000,382.893000C176.881000,517.846000,279.724000,587.512000,406.465000,587.317000C533.198000,587.122000,635.823000,517.133000,635.628000,382.180000C635.337000,184.988000,532.355000,25.279000,405.605000,25.474000ZM476.632000,500.758000C455.346000,510.242000,431.334000,452.347000,404.989000,451.894000C379.537000,451.439000,354.958000,508.799000,334.483000,499.234000C291.884000,479.277000,263.561000,442.459000,264.339000,400.874000C265.417000,339.249000,329.829000,290.466000,408.184000,291.876000C486.539000,293.303000,549.151000,344.356000,548.017000,405.980000C547.304000,446.835000,518.705000,482.080000,476.632000,500.758000Z" transform="matrix(-0.50000000000000 -0.86602540378444 0.86602540378444 -0.50000000000000 343.87682923429577 811.32860977649557)" clip-rule="evenodd" fill="rgb(255,255,255)" fill-rule="evenodd" stroke="none" stroke-width="1"/></svg>